<svg width="60" height="58" viewBox="0 0 60 58" fill="none" xmlns="http://www.w3.org/2000/svg">
<g clip-path="url(#clip0_24_806)">
<path d="M29.9999 57.9999C46.5684 57.9999 59.9999 45.0162 59.9999 28.9999C59.9999 12.9837 46.5684 0 29.9999 0C13.4314 0 0 12.9837 0 28.9999C0 45.0162 13.4314 57.9999 29.9999 57.9999Z" fill="#771F98"/>
<path d="M39.9446 13.6904C36.297 13.6904 32.9086 15.4085 30.8717 18.2888L30.451 18.8058L30.1706 18.4601C28.1569 15.4726 24.7618 13.6904 21.0768 13.6904C14.7889 13.6904 10.2251 18.102 10.2251 24.1795C10.2251 33.1533 27.0304 46.3784 28.2559 47.3305C28.8347 47.8649 29.5913 48.1589 30.3947 48.1589C31.1981 48.1589 31.955 47.8649 32.5345 47.3297C33.7643 46.3712 50.7965 32.9368 50.7965 24.1796C50.7953 18.102 46.2322 13.6904 39.9446 13.6904Z" fill="#98AAE2"/>
</g>
<defs>
<clipPath id="clip0_24_806">
<rect width="60" height="58" fill="white"/>
</clipPath>
</defs>
</svg>
