<svg width="444" height="399" viewBox="0 0 444 399" fill="none" xmlns="http://www.w3.org/2000/svg">
<ellipse cx="230" cy="199.5" rx="214" ry="199.5" fill="#FFD4FF"/>
<g clip-path="url(#clip0_35_884)">
<path d="M297.148 246.241L244.179 194.559C240.523 190.992 234.593 190.992 230.937 194.56L202.802 222.011C193.955 230.641 189.083 242.115 189.081 254.318C189.079 266.522 193.95 277.994 202.793 286.62C211.634 295.247 223.389 300 235.895 300C235.896 300 235.896 300 235.897 300C248.403 300 260.165 295.246 269.011 286.614L297.147 259.162C298.904 257.449 299.89 255.125 299.89 252.701C299.89 250.278 298.904 247.955 297.148 246.241Z" fill="#C664E9"/>
<path d="M325.29 167.101C316.447 158.472 304.69 153.72 292.186 153.72C279.68 153.72 267.919 158.474 259.071 167.107L230.937 194.56C229.181 196.273 228.194 198.597 228.194 201.02C228.194 203.443 229.18 205.767 230.937 207.48L283.906 259.161C285.734 260.945 288.131 261.837 290.528 261.837C292.924 261.837 295.321 260.945 297.148 259.161L325.283 231.71C343.537 213.898 343.541 184.915 325.29 167.101Z" fill="#A12BB6"/>
<path d="M212.923 112.381C204.081 103.752 192.324 99 179.819 99C167.313 99 155.555 103.752 146.713 112.381C137.87 121.009 133 132.481 133 144.683C133 156.884 137.87 168.355 146.714 176.984C148.542 178.768 150.939 179.66 153.335 179.66C155.731 179.66 158.128 178.768 159.956 176.984L212.924 125.3C216.58 121.733 216.58 115.948 212.923 112.381Z" fill="#C664E9"/>
<path d="M212.924 112.381C211.168 110.667 208.786 109.704 206.303 109.704C203.82 109.704 201.438 110.667 199.682 112.381L146.714 164.063C143.058 167.632 143.057 173.416 146.713 176.984C155.555 185.612 167.312 190.364 179.818 190.364C192.324 190.364 204.08 185.612 212.924 176.984C221.767 168.355 226.637 156.884 226.637 144.682C226.637 132.48 221.766 121.008 212.924 112.381Z" fill="#771F98"/>
</g>
<path d="M284.651 41.6375C285.557 38.8905 289.443 38.8905 290.349 41.6375L294.342 53.7422C294.747 54.9718 295.896 55.8024 297.191 55.8024H310.014C312.931 55.8024 314.132 59.5443 311.76 61.242L301.464 68.6111C300.396 69.3749 299.95 70.7439 300.361 71.9904L304.312 83.9691C305.221 86.7251 302.077 89.0374 299.717 87.3484L289.246 79.8545C288.202 79.1072 286.798 79.1072 285.754 79.8545L275.283 87.3484C272.923 89.0374 269.779 86.7251 270.688 83.9691L274.639 71.9904C275.05 70.7439 274.604 69.3749 273.536 68.6111L263.24 61.242C260.868 59.5443 262.069 55.8024 264.986 55.8024H277.809C279.104 55.8024 280.253 54.9718 280.658 53.7422L284.651 41.6375Z" fill="#BABFFF"/>
<path d="M284.651 41.6375C285.557 38.8905 289.443 38.8905 290.349 41.6375L294.342 53.7422C294.747 54.9718 295.896 55.8024 297.191 55.8024H310.014C312.931 55.8024 314.132 59.5443 311.76 61.242L301.464 68.6111C300.396 69.3749 299.95 70.7439 300.361 71.9904L304.312 83.9691C305.221 86.7251 302.077 89.0374 299.717 87.3484L289.246 79.8545C288.202 79.1072 286.798 79.1072 285.754 79.8545L275.283 87.3484C272.923 89.0374 269.779 86.7251 270.688 83.9691L274.639 71.9904C275.05 70.7439 274.604 69.3749 273.536 68.6111L263.24 61.242C260.868 59.5443 262.069 55.8024 264.986 55.8024H277.809C279.104 55.8024 280.253 54.9718 280.658 53.7422L284.651 41.6375Z" fill="#BABFFF"/>
<path d="M125.813 242.522C128.12 240.776 131.318 242.984 130.503 245.759L126.911 257.989C126.546 259.231 127.02 260.567 128.085 261.303L138.638 268.588C141.039 270.246 139.901 274.007 136.984 274.057L124.325 274.271C123.012 274.294 121.867 275.166 121.497 276.426L117.943 288.528C117.125 291.313 113.224 291.429 112.242 288.699L107.882 276.583C107.448 275.375 106.292 274.577 105.009 274.599L92.1344 274.817C89.2328 274.866 87.959 271.177 90.2729 269.425L100.33 261.812C101.376 261.02 101.786 259.64 101.342 258.405L97.0556 246.491C96.068 243.746 99.1822 241.349 101.583 243.006L112.136 250.292C113.201 251.027 114.618 250.996 115.651 250.215L125.813 242.522Z" fill="#FED21C"/>
<path d="M381.651 242.638C382.557 239.89 386.443 239.89 387.349 242.638L391.342 254.742C391.747 255.972 392.896 256.802 394.191 256.802H407.014C409.931 256.802 411.132 260.544 408.76 262.242L398.464 269.611C397.396 270.375 396.95 271.744 397.361 272.99L401.312 284.969C402.221 287.725 399.077 290.037 396.717 288.348L386.246 280.854C385.202 280.107 383.798 280.107 382.754 280.854L372.283 288.348C369.923 290.037 366.779 287.725 367.688 284.969L371.639 272.99C372.05 271.744 371.604 270.375 370.536 269.611L360.24 262.242C357.868 260.544 359.069 256.802 361.986 256.802H374.809C376.104 256.802 377.253 255.972 377.658 254.742L381.651 242.638Z" fill="#F376DA" fill-opacity="0.59"/>
<ellipse cx="88" cy="186.5" rx="20" ry="20.5" fill="#F28DFD"/>
<ellipse cx="422" cy="135" rx="22" ry="23" fill="#FED21C"/>
<path d="M40 98.5L60 71L78 98.5" stroke="#FED21C" stroke-width="3"/>
<path d="M78 98.5L98 71L116 98.5" stroke="#FED21C" stroke-width="3"/>
<path d="M2 98.5L22 71L40 98.5" stroke="#FED21C" stroke-width="3"/>
<defs>
<clipPath id="clip0_35_884">
<rect width="206" height="201" fill="white" transform="translate(133 99)"/>
</clipPath>
</defs>
</svg>
