<svg width="290" height="301" viewBox="0 0 290 301" fill="none" xmlns="http://www.w3.org/2000/svg">
<path d="M213.303 266.428C218.094 258.261 197.817 232.876 167.992 209.756C163.387 206.178 158.829 202.88 154.384 199.857C143.12 192.193 132.618 186.456 124.204 183.2C114.468 179.422 107.51 178.951 105.333 182.643C100.543 190.824 120.819 216.195 150.646 239.329C180.458 262.449 208.498 274.581 213.302 266.413L213.303 266.428Z" fill="#FFB45C"/>
<path d="M184.187 289.383C170.394 289.8 157.843 254.13 156.152 209.713C154.462 165.295 164.273 128.95 178.066 128.533C191.859 128.116 204.411 163.786 206.101 208.203C207.791 252.621 197.98 288.966 184.187 289.383Z" fill="#FFB45C"/>
<path d="M183.769 281.764C172.869 271.878 183.391 235.805 207.271 201.194C231.151 166.583 259.346 146.539 270.246 156.426C281.146 166.312 270.624 202.385 246.744 236.996C222.864 271.607 194.669 291.651 183.769 281.764Z" fill="#FFB45C"/>
<path d="M108.211 248.168C112.115 269.907 141.109 280.316 154.228 285.033C192.05 298.62 249.755 296.27 259.222 265.986C268.383 236.655 232.388 180.847 188.336 176.441C144.943 172.101 102.891 218.539 108.212 248.183L108.211 248.168Z" fill="#FFB45C"/>
<path d="M231.206 272.833C226.467 272.514 222.751 268.811 222.907 264.562C223.063 260.313 227.032 257.127 231.771 257.446C236.511 257.765 240.227 261.468 240.071 265.717C239.915 269.966 235.946 273.152 231.206 272.833Z" fill="#5B3F77" fill-opacity="0.29"/>
<path d="M238.704 245.67C235.225 245.436 232.498 242.714 232.613 239.591C232.727 236.468 235.641 234.126 239.12 234.36C242.599 234.594 245.326 237.316 245.212 240.439C245.097 243.562 242.184 245.904 238.704 245.67Z" fill="#5B3F77" fill-opacity="0.29"/>
<path d="M187.258 269.891C184.275 269.69 181.938 267.362 182.036 264.691C182.134 262.02 184.631 260.018 187.613 260.218C190.595 260.419 192.933 262.747 192.835 265.418C192.737 268.089 190.24 270.092 187.258 269.891Z" fill="#5B3F77" fill-opacity="0.29"/>
<path d="M129.469 206.984C127.343 207.155 125.469 205.324 125.282 202.893C125.096 200.462 126.668 198.352 128.794 198.181C130.92 198.009 132.794 199.841 132.98 202.272C133.167 204.703 131.595 206.812 129.469 206.984Z" fill="#5B3F77" fill-opacity="0.29"/>
<path d="M127.179 255.761C123.895 255.54 121.319 252.975 121.428 250.033C121.536 247.091 124.286 244.885 127.571 245.106C130.855 245.327 133.43 247.891 133.322 250.834C133.214 253.776 130.464 255.982 127.179 255.761Z" fill="#5B3F77" fill-opacity="0.29"/>
<path d="M199.095 234.096C194.356 233.777 190.64 230.074 190.796 225.825C190.952 221.576 194.921 218.39 199.661 218.709C204.4 219.028 208.116 222.731 207.96 226.98C207.804 231.229 203.835 234.415 199.095 234.096Z" fill="#5B3F77" fill-opacity="0.29"/>
<path d="M174.276 165.869C169.536 165.55 165.821 161.847 165.977 157.598C166.133 153.349 170.102 150.163 174.841 150.482C179.581 150.801 183.297 154.504 183.141 158.753C182.984 163.002 179.016 166.188 174.276 165.869Z" fill="#5B3F77" fill-opacity="0.29"/>
<path d="M232.588 209.636C227.848 209.317 224.133 205.614 224.289 201.365C224.445 197.116 228.414 193.93 233.153 194.249C237.893 194.568 241.609 198.271 241.452 202.52C241.296 206.769 237.328 209.955 232.588 209.636Z" fill="#5B3F77" fill-opacity="0.29"/>
<path d="M256.188 186.347C254.036 183.633 253.784 179.894 255.625 177.997C257.467 176.099 260.704 176.761 262.856 179.475C265.008 182.189 265.26 185.927 263.418 187.825C261.577 189.723 258.34 189.061 256.188 186.347Z" fill="#5B3F77" fill-opacity="0.29"/>
<path d="M166.547 207.171C161.808 206.853 158.092 203.149 158.248 198.9C158.404 194.651 162.373 191.465 167.113 191.784C171.852 192.103 175.568 195.806 175.412 200.055C175.256 204.304 171.287 207.49 166.547 207.171Z" fill="#5B3F77" fill-opacity="0.29"/>
<path d="M179.787 222.121C181.247 222.228 182.143 224.011 182.525 225.416C183.085 227.421 182.242 229.569 181.003 230.985C178.644 233.674 174.903 233.677 172.446 230.987C169.989 228.298 169.315 223.774 171.503 220.74C173.691 217.705 177.95 217.272 180.842 219.672C183.539 221.908 184.183 226.21 182.637 229.432C180.741 233.37 176.203 234.769 173.036 231.688C171.651 230.348 170.936 228.536 171.382 226.495C171.634 225.352 172.273 224.463 173.286 224.202C173.659 224.112 173.983 224.071 174.383 224.173C174.716 224.251 174.666 224.27 174.204 224.217C174.658 224.166 175.082 224.236 175.49 224.443C175.853 224.563 176.129 224.75 176.468 224.917C175.813 224.566 177.058 224.93 176.167 224.912C176.141 224.914 176.791 224.862 176.805 224.875C176.601 224.593 175.696 225.593 176.302 224.961C176.206 225.073 175.768 225.857 175.882 225.459C176.069 224.83 175.751 226.486 175.919 225.426C176.049 224.562 175.994 225.898 176.022 226.091C175.903 225.397 176.195 226.301 176.374 226.586L176.746 226.825C176.363 226.617 176.428 226.611 176.928 226.811C176.701 226.754 175.829 226.645 176.857 226.741C176.027 226.674 177.539 226.417 176.794 226.776C177.285 226.527 177.506 226.33 177.764 225.771C177.357 226.611 177.927 224.83 177.79 225.768C177.805 225.109 177.819 224.958 177.832 225.301C177.844 225.45 177.854 225.584 177.866 225.732L177.769 225.157C177.92 225.593 177.877 225.537 177.637 224.973C177.95 225.471 178.038 225.419 177.644 225.062C178.219 225.569 177.142 224.833 177.047 224.781C177.613 225.005 176.658 224.827 176.4 224.878C177.043 224.736 176.025 224.938 175.962 225.302C175.995 225.06 176.441 224.561 176.073 225.219C176.476 224.498 176.727 224.029 177.299 223.459C177.555 223.214 177.506 223.263 177.166 223.604C177.332 223.382 177.344 223.366 177.228 223.555L177.146 223.681C177.346 223.216 177.618 222.85 177.988 222.551C178.542 222.102 179.086 222.028 179.757 222.079L179.787 222.121Z" fill="#3E3D4D"/>
<path d="M202.748 185.737C200.346 179.153 193.263 177.734 189.179 183.001C187.94 184.597 185.68 182.416 186.93 180.804C192.478 173.638 202.238 175.679 205.501 184.617C206.23 186.623 203.476 187.728 202.748 185.737Z" fill="#3E3D4D"/>
<path d="M152.208 180.343C150.076 173.692 143.094 171.712 138.774 176.803C137.478 178.329 135.217 176.148 136.525 174.606C142.32 167.765 152.036 170.078 154.962 179.223C155.615 181.265 152.862 182.385 152.208 180.343Z" fill="#3E3D4D"/>
<path d="M149.101 223.953C149.672 226.286 148.879 228.565 147.192 229.942C145.726 231.138 143.546 231.194 141.985 230.123C140.424 229.052 139.211 227.22 139.058 225.048C138.885 222.458 140.287 220.086 142.362 219.17C144.16 218.382 146.398 218.74 147.91 220.189C149.421 221.638 150.126 223.841 149.795 226.007C149.464 228.173 148.169 230.058 146.355 230.803C145.175 231.287 143.836 231.231 142.7 230.574C141.96 230.14 141.054 229.42 140.648 228.555C139.991 227.157 139.79 225.722 140.585 224.326C141.323 223.025 142.613 222.442 143.967 222.692C143.993 222.69 144.419 222.79 144.419 222.79C144.411 222.686 143.311 222.849 144.098 222.696L143.134 222.923C143.555 222.785 143.981 222.706 144.405 222.611L143.429 222.84C143.891 222.728 143.783 222.512 143.16 223.086L142.688 223.588C142.854 223.365 142.832 223.427 142.61 223.774C142.427 224.118 142.381 224.196 142.471 224.009C142.605 223.699 142.543 223.914 142.311 224.651C142.325 224.485 142.363 224.302 142.375 224.122L142.333 225.277C142.319 225.099 142.307 224.935 142.293 224.757L142.511 225.891C142.489 225.773 142.455 225.671 142.407 225.556L142.863 226.551C142.644 226.09 142.485 226.237 143.144 226.813L143.713 227.231C143.617 227.179 143.522 227.126 143.427 227.089L144.37 227.447C144.21 227.4 144.076 227.366 143.918 227.349L144.944 227.416C144.787 227.413 144.644 227.425 144.476 227.453L145.479 227.223C145.325 227.265 145.184 227.307 145.046 227.378L145.922 226.858C145.759 226.961 145.406 227.304 145.916 226.784C146.101 226.634 146.256 226.442 146.343 226.211C146.537 225.836 146.584 225.772 146.474 226.035L146.784 224.963C146.743 225.116 146.714 225.253 146.701 225.419L146.755 224.247C146.75 224.517 146.783 224.784 146.829 225.034L146.61 223.885C146.757 224.442 146.861 224.089 146.37 223.485C146.472 223.627 146.782 224.081 146.315 223.46C146.057 223.166 146.011 223.08 146.14 223.22C146.365 223.426 146.199 223.305 145.64 222.841C145.45 222.752 144.651 222.577 145.273 222.661L144.299 222.59C144.39 222.583 144.481 222.575 144.585 222.567L143.647 222.792C144.02 222.702 144.107 222.471 143.326 223.043C143.748 222.739 142.763 223.716 143.011 223.367C143.118 223.224 143.07 223.288 142.885 223.602C142.702 223.946 142.666 223.994 142.779 223.76C142.775 223.356 143.15 222.967 143.39 222.678C144.188 221.656 145.367 221.157 146.579 221.434C147.657 221.676 148.819 222.659 149.125 223.921L149.101 223.953Z" fill="#3E3D4D"/>
<path d="M171.261 257.341L162.887 262.131L171.261 257.341Z" fill="#3E3D4D"/>
<path d="M171.261 257.341L162.887 262.131" stroke="#FFB45C" stroke-width="7.56379" stroke-miterlimit="10" stroke-linecap="round"/>
<path d="M167.922 235.302C169.412 239.715 173.286 242.964 177.391 243.261" stroke="#FFB45C" stroke-width="7.56379" stroke-miterlimit="10" stroke-linecap="round"/>
<path d="M152.086 232.51C151.107 236.988 146.292 239.71 142.517 237.92" stroke="#FFB45C" stroke-width="7.56379" stroke-miterlimit="10" stroke-linecap="round"/>
<line x1="4.5" y1="-4.5" x2="19.5214" y2="-4.5" transform="matrix(0.909901 -0.414825 0.397562 0.917575 168.785 216.769)" stroke="black" stroke-opacity="0.7" stroke-width="9" stroke-linecap="round"/>
<line x1="4.5" y1="-4.5" x2="18.7554" y2="-4.5" transform="matrix(-0.824988 -0.565151 0.545602 -0.838044 158.828 209.982)" stroke="black" stroke-opacity="0.68" stroke-width="9" stroke-linecap="round"/>
<ellipse cx="161.5" cy="255.5" rx="21.5" ry="6.5" fill="#3E3D4D"/>
<path d="M153.262 263.373L145.847 248.97L158.429 247.971L153.262 263.373Z" fill="#D9D9D9"/>
<path d="M167.459 263.856L163.796 248.007L176.22 250.272L167.459 263.856Z" fill="#D9D9D9"/>
<rect width="170" height="113.348" rx="40" transform="matrix(0.999956 -0.00934806 0.00848938 0.999964 0 1.58911)" fill="#B2C5FF"/>
<path d="M135.66 153.3L71.1808 74.0895L153.849 51.8067L135.66 153.3Z" fill="#B2C5FF"/>
<path d="M39.0526 41.78C39.0126 42.6733 38.9592 43.5733 38.8926 44.48C38.8392 45.3733 38.7326 46.24 38.5726 47.08C38.4259 47.92 38.2059 48.7067 37.9126 49.44C37.6326 50.1733 37.2392 50.82 36.7326 51.38C36.2392 51.94 35.6192 52.3867 34.8726 52.72C34.1259 53.0533 33.2126 53.24 32.1326 53.28L31.7926 50.56C32.7526 50.4533 33.4926 50.2133 34.0126 49.84C34.5326 49.4533 34.9259 48.8667 35.1926 48.08C35.5259 47.1067 35.7592 45.8533 35.8926 44.32C36.0392 42.7733 36.1126 41.0467 36.1126 39.14H45.5726V53H42.4526V41.78H39.0526ZM58.5538 53C58.4072 52.52 58.2405 52.0267 58.0538 51.52C57.8805 51.0133 57.7072 50.5067 57.5338 50H52.1338C51.9605 50.5067 51.7805 51.0133 51.5938 51.52C51.4205 52.0267 51.2605 52.52 51.1138 53H47.8738C48.3938 51.5067 48.8872 50.1267 49.3538 48.86C49.8205 47.5933 50.2738 46.4 50.7138 45.28C51.1672 44.16 51.6072 43.1 52.0338 42.1C52.4738 41.0867 52.9272 40.1 53.3938 39.14H56.3738C56.8272 40.1 57.2738 41.0867 57.7138 42.1C58.1538 43.1 58.5938 44.16 59.0338 45.28C59.4872 46.4 59.9472 47.5933 60.4138 48.86C60.8805 50.1267 61.3738 51.5067 61.8938 53H58.5538ZM54.8138 42.28C54.7472 42.48 54.6472 42.7533 54.5138 43.1C54.3805 43.4467 54.2272 43.8467 54.0538 44.3C53.8805 44.7533 53.6872 45.2533 53.4738 45.8C53.2738 46.3467 53.0672 46.92 52.8538 47.52H56.7938C56.5805 46.92 56.3738 46.3467 56.1738 45.8C55.9738 45.2533 55.7805 44.7533 55.5938 44.3C55.4205 43.8467 55.2672 43.4467 55.1338 43.1C55.0005 42.7533 54.8938 42.48 54.8138 42.28ZM63.359 50.36H65.359C65.8523 49.5067 66.239 48.66 66.519 47.82C66.799 46.98 67.0057 46.1267 67.139 45.26C67.2857 44.3933 67.3723 43.5 67.399 42.58C67.439 41.66 67.459 40.6933 67.459 39.68V39.14H76.619V50.36H78.999V56.7H75.999V53H66.359V56.7H63.359V50.36ZM70.399 41.78C70.3723 42.5 70.3257 43.24 70.259 44C70.1923 44.76 70.0923 45.5133 69.959 46.26C69.8257 46.9933 69.6457 47.7133 69.419 48.42C69.2057 49.1133 68.9323 49.76 68.599 50.36H73.579V41.78H70.399ZM89.8643 39.14H92.9843V53H89.8643V47.12H84.6243V53H81.5043V39.14H84.6243V44.44H89.8643V39.14ZM99.3118 46.06C99.3118 46.74 99.3918 47.3533 99.5518 47.9C99.7251 48.4467 99.9651 48.92 100.272 49.32C100.592 49.7067 100.978 50.0067 101.432 50.22C101.885 50.4333 102.405 50.54 102.992 50.54C103.565 50.54 104.078 50.4333 104.532 50.22C104.998 50.0067 105.385 49.7067 105.692 49.32C106.012 48.92 106.252 48.4467 106.412 47.9C106.585 47.3533 106.672 46.74 106.672 46.06C106.672 45.38 106.585 44.7667 106.412 44.22C106.252 43.66 106.012 43.1867 105.692 42.8C105.385 42.4 104.998 42.0933 104.532 41.88C104.078 41.6667 103.565 41.56 102.992 41.56C102.405 41.56 101.885 41.6733 101.432 41.9C100.978 42.1133 100.592 42.42 100.272 42.82C99.9651 43.2067 99.7251 43.68 99.5518 44.24C99.3918 44.7867 99.3118 45.3933 99.3118 46.06ZM109.892 46.06C109.892 47.2467 109.712 48.2933 109.352 49.2C109.005 50.0933 108.525 50.8467 107.912 51.46C107.298 52.06 106.565 52.5133 105.712 52.82C104.872 53.1267 103.965 53.28 102.992 53.28C102.045 53.28 101.152 53.1267 100.312 52.82C99.4718 52.5133 98.7385 52.06 98.1118 51.46C97.4851 50.8467 96.9918 50.0933 96.6318 49.2C96.2718 48.2933 96.0918 47.2467 96.0918 46.06C96.0918 44.8733 96.2785 43.8333 96.6518 42.94C97.0251 42.0333 97.5251 41.2733 98.1518 40.66C98.7918 40.0467 99.5251 39.5867 100.352 39.28C101.192 38.9733 102.072 38.82 102.992 38.82C103.938 38.82 104.832 38.9733 105.672 39.28C106.512 39.5867 107.245 40.0467 107.872 40.66C108.498 41.2733 108.992 42.0333 109.352 42.94C109.712 43.8333 109.892 44.8733 109.892 46.06ZM114.812 49.96C114.838 50.28 114.852 50.5067 114.852 50.64C114.865 50.7733 114.872 50.8867 114.872 50.98C114.872 51.38 114.832 51.8067 114.752 52.26C114.685 52.7 114.585 53.1467 114.452 53.6C114.318 54.0533 114.152 54.5067 113.952 54.96C113.752 55.4133 113.525 55.8467 113.272 56.26L110.932 55.68C111.238 54.8 111.452 53.9733 111.572 53.2C111.692 52.4267 111.752 51.7867 111.752 51.28C111.752 51.2 111.745 51.1 111.732 50.98C111.732 50.8467 111.725 50.7133 111.712 50.58C111.712 50.4467 111.705 50.32 111.692 50.2C111.692 50.08 111.692 50 111.692 49.96H114.812ZM129.158 41.68C128.758 41.68 128.372 41.7133 127.998 41.78C127.638 41.8333 127.318 41.9333 127.038 42.08C126.758 42.2133 126.532 42.4067 126.358 42.66C126.185 42.9 126.098 43.2067 126.098 43.58C126.098 44.2867 126.345 44.7733 126.838 45.04C127.345 45.3067 128.092 45.44 129.078 45.44H130.378V41.7C130.218 41.6867 130.045 41.68 129.858 41.68C129.672 41.68 129.438 41.68 129.158 41.68ZM129.298 39C129.858 39 130.512 39.0333 131.258 39.1C132.018 39.1667 132.765 39.28 133.498 39.44V53H130.378V48.02H129.418C129.245 48.02 129.078 48.02 128.918 48.02C128.758 48.02 128.565 48.0067 128.338 47.98C127.898 48.58 127.412 49.3333 126.878 50.24C126.358 51.1333 125.872 52.0533 125.418 53H122.118C122.358 52.4533 122.612 51.9133 122.878 51.38C123.158 50.8467 123.438 50.34 123.718 49.86C123.998 49.38 124.272 48.94 124.538 48.54C124.805 48.1267 125.052 47.7667 125.278 47.46C124.985 47.3267 124.692 47.1533 124.398 46.94C124.118 46.7133 123.865 46.4467 123.638 46.14C123.412 45.8333 123.225 45.4733 123.078 45.06C122.945 44.6333 122.878 44.1467 122.878 43.6C122.878 42.84 123.025 42.1733 123.318 41.6C123.625 41.0267 124.052 40.5467 124.598 40.16C125.158 39.7733 125.832 39.4867 126.618 39.3C127.418 39.1 128.312 39 129.298 39ZM54.1851 80.94C53.7984 81.82 53.3917 82.5467 52.9651 83.12C52.5384 83.68 52.0984 84.12 51.6451 84.44C51.1917 84.76 50.7317 84.98 50.2651 85.1C49.7984 85.22 49.3251 85.28 48.8451 85.28C48.3917 85.28 47.9184 85.2333 47.4251 85.14C46.9451 85.06 46.4917 84.94 46.0651 84.78L46.6251 82.28C47.2784 82.52 47.9251 82.64 48.5651 82.64C48.9784 82.64 49.3717 82.5467 49.7451 82.36C50.1317 82.1733 50.4984 81.7733 50.8451 81.16C50.2984 80.3067 49.7717 79.4333 49.2651 78.54C48.7717 77.6333 48.2984 76.7467 47.8451 75.88C47.4051 75 46.9917 74.16 46.6051 73.36C46.2317 72.5467 45.8984 71.8067 45.6051 71.14H49.0651C49.2784 71.66 49.5117 72.22 49.7651 72.82C50.0317 73.4067 50.3117 74.02 50.6051 74.66C50.8984 75.2867 51.1917 75.92 51.4851 76.56C51.7917 77.1867 52.0851 77.8 52.3651 78.4C52.7917 77.2267 53.1984 76.0267 53.5851 74.8C53.9717 73.5733 54.3451 72.3533 54.7051 71.14H58.0451C57.6984 72.1667 57.3584 73.1267 57.0251 74.02C56.6917 74.9133 56.3651 75.76 56.0451 76.56C55.7251 77.36 55.4051 78.12 55.0851 78.84C54.7784 79.56 54.4784 80.26 54.1851 80.94ZM68.9565 85C68.5698 84.2267 68.1432 83.4467 67.6765 82.66C67.2232 81.86 66.6965 81.0467 66.0965 80.22C65.9098 80.46 65.6698 80.7933 65.3765 81.22C65.0965 81.6467 64.8098 82.1 64.5165 82.58C64.2365 83.06 63.9698 83.52 63.7165 83.96C63.4632 84.4 63.2765 84.7467 63.1565 85H59.5965C60.1832 83.92 60.8632 82.7867 61.6365 81.6C62.4232 80.4133 63.2965 79.1533 64.2565 77.82L59.7965 71.14H63.5765L66.2765 75.46L68.9165 71.14H72.4765L68.0765 77.86C69.1965 79.3133 70.1365 80.66 70.8965 81.9C71.6565 83.1267 72.2565 84.16 72.6965 85H68.9565ZM76.8509 78.06C76.8509 78.74 76.9309 79.3533 77.0909 79.9C77.2642 80.4467 77.5042 80.92 77.8109 81.32C78.1309 81.7067 78.5175 82.0067 78.9709 82.22C79.4242 82.4333 79.9442 82.54 80.5309 82.54C81.1042 82.54 81.6175 82.4333 82.0709 82.22C82.5375 82.0067 82.9242 81.7067 83.2309 81.32C83.5509 80.92 83.7909 80.4467 83.9509 79.9C84.1242 79.3533 84.2109 78.74 84.2109 78.06C84.2109 77.38 84.1242 76.7667 83.9509 76.22C83.7909 75.66 83.5509 75.1867 83.2309 74.8C82.9242 74.4 82.5375 74.0933 82.0709 73.88C81.6175 73.6667 81.1042 73.56 80.5309 73.56C79.9442 73.56 79.4242 73.6733 78.9709 73.9C78.5175 74.1133 78.1309 74.42 77.8109 74.82C77.5042 75.2067 77.2642 75.68 77.0909 76.24C76.9309 76.7867 76.8509 77.3933 76.8509 78.06ZM87.4309 78.06C87.4309 79.2467 87.2509 80.2933 86.8909 81.2C86.5442 82.0933 86.0642 82.8467 85.4509 83.46C84.8375 84.06 84.1042 84.5133 83.2509 84.82C82.4109 85.1267 81.5042 85.28 80.5309 85.28C79.5842 85.28 78.6909 85.1267 77.8509 84.82C77.0109 84.5133 76.2775 84.06 75.6509 83.46C75.0242 82.8467 74.5309 82.0933 74.1709 81.2C73.8109 80.2933 73.6309 79.2467 73.6309 78.06C73.6309 76.8733 73.8175 75.8333 74.1909 74.94C74.5642 74.0333 75.0642 73.2733 75.6909 72.66C76.3309 72.0467 77.0642 71.5867 77.8909 71.28C78.7309 70.9733 79.6109 70.82 80.5309 70.82C81.4775 70.82 82.3709 70.9733 83.2109 71.28C84.0509 71.5867 84.7842 72.0467 85.4109 72.66C86.0375 73.2733 86.5309 74.0333 86.8909 74.94C87.2509 75.8333 87.4309 76.8733 87.4309 78.06ZM88.4285 85C88.8152 84.32 89.2285 83.64 89.6685 82.96C90.1085 82.28 90.5552 81.6267 91.0085 81C91.4752 80.36 91.9485 79.7667 92.4285 79.22C92.9218 78.66 93.4152 78.16 93.9085 77.72C93.3485 77.1467 92.8285 76.5867 92.3485 76.04C91.8685 75.4933 91.4085 74.9533 90.9685 74.42C90.5418 73.8867 90.1218 73.3533 89.7085 72.82C89.2952 72.2733 88.8752 71.7133 88.4485 71.14H92.2085C92.6085 71.7 92.9818 72.2133 93.3285 72.68C93.6885 73.1467 94.0352 73.6 94.3685 74.04C94.7152 74.48 95.0618 74.9133 95.4085 75.34C95.7552 75.7667 96.1285 76.22 96.5285 76.7V71.14H99.5685V76.7C99.9685 76.2067 100.349 75.74 100.709 75.3C101.082 74.8467 101.442 74.4 101.789 73.96C102.135 73.52 102.482 73.0733 102.829 72.62C103.175 72.1533 103.529 71.66 103.889 71.14H107.629C107.149 71.7667 106.695 72.3533 106.269 72.9C105.855 73.4467 105.435 73.98 105.009 74.5C104.582 75.02 104.142 75.54 103.689 76.06C103.249 76.58 102.762 77.1267 102.229 77.7C103.309 78.7 104.295 79.8267 105.189 81.08C106.082 82.32 106.915 83.6267 107.689 85H104.209C103.795 84.3733 103.409 83.7933 103.049 83.26C102.689 82.7267 102.329 82.2133 101.969 81.72C101.609 81.2267 101.235 80.7467 100.849 80.28C100.462 79.8 100.035 79.3067 99.5685 78.8V85H96.5285V78.8C96.0485 79.36 95.6152 79.88 95.2285 80.36C94.8418 80.84 94.4685 81.32 94.1085 81.8C93.7618 82.28 93.4085 82.78 93.0485 83.3C92.6885 83.8067 92.3018 84.3733 91.8885 85H88.4285ZM117.728 80.94C117.341 81.82 116.935 82.5467 116.508 83.12C116.081 83.68 115.641 84.12 115.188 84.44C114.735 84.76 114.275 84.98 113.808 85.1C113.341 85.22 112.868 85.28 112.388 85.28C111.935 85.28 111.461 85.2333 110.968 85.14C110.488 85.06 110.035 84.94 109.608 84.78L110.168 82.28C110.821 82.52 111.468 82.64 112.108 82.64C112.521 82.64 112.915 82.5467 113.288 82.36C113.675 82.1733 114.041 81.7733 114.388 81.16C113.841 80.3067 113.315 79.4333 112.808 78.54C112.315 77.6333 111.841 76.7467 111.388 75.88C110.948 75 110.535 74.16 110.148 73.36C109.775 72.5467 109.441 71.8067 109.148 71.14H112.608C112.821 71.66 113.055 72.22 113.308 72.82C113.575 73.4067 113.855 74.02 114.148 74.66C114.441 75.2867 114.735 75.92 115.028 76.56C115.335 77.1867 115.628 77.8 115.908 78.4C116.335 77.2267 116.741 76.0267 117.128 74.8C117.515 73.5733 117.888 72.3533 118.248 71.14H121.588C121.241 72.1667 120.901 73.1267 120.568 74.02C120.235 74.9133 119.908 75.76 119.588 76.56C119.268 77.36 118.948 78.12 118.628 78.84C118.321 79.56 118.021 80.26 117.728 80.94Z" fill="#575753"/>
</svg>
