<svg width="122" height="122" viewBox="0 0 122 122" fill="none" xmlns="http://www.w3.org/2000/svg">
<circle cx="61" cy="61" r="61" fill="white"/>
<g clip-path="url(#clip0_0_1)">
<path d="M96 61C96 59.7759 94.9775 58.7826 93.7173 58.7826H90.0973L94.5705 54.4372C95.462 53.5711 95.462 52.1678 94.5705 51.3016C93.6789 50.4354 92.2344 50.4356 91.3427 51.3016L83.6417 58.7826H72.1829C71.8865 57.3692 71.3093 56.0551 70.5154 54.8918L78.6232 47.0156H89.5146C90.7747 47.0156 91.7973 46.0223 91.7973 44.7982C91.7973 43.5741 90.7747 42.5808 89.5146 42.5808H83.1885L85.749 40.0935C86.6405 39.2274 86.6405 37.8241 85.749 36.9579C84.8574 36.0917 83.4128 36.0918 82.5212 36.9579L79.9608 39.4452V33.3C79.9608 32.0758 78.9383 31.0825 77.6782 31.0825C76.418 31.0825 75.3955 32.0758 75.3955 33.3V43.8802L67.2878 51.7562C66.0903 50.985 64.7378 50.4245 63.2827 50.1363V39.0051L70.9835 31.5243C71.875 30.6582 71.875 29.2549 70.9835 28.3887C70.0919 27.5225 68.6474 27.5226 67.7557 28.3887L63.2827 32.7339V29.2174C63.2827 27.9933 62.2601 27 61 27C59.7399 27 58.7173 27.9933 58.7173 29.2174V32.734L54.2442 28.3888C53.3526 27.5227 51.9081 27.5227 51.0164 28.3888C50.1247 29.2549 50.1248 30.6582 51.0164 31.5244L58.7173 39.0052V50.1366C57.2624 50.4245 55.9097 50.9853 54.7122 51.7565L46.6043 43.8803V33.3C46.6043 32.0758 45.5818 31.0825 44.3217 31.0825C43.0615 31.0825 42.039 32.0758 42.039 33.3V39.4453L39.4787 36.958C38.5871 36.0919 37.1426 36.0919 36.2509 36.958C35.3592 37.8241 35.3594 39.2274 36.2509 40.0936L38.8114 42.5809H32.4853C31.2251 42.5809 30.2026 43.5742 30.2026 44.7983C30.2026 46.0225 31.2251 47.0158 32.4853 47.0158H43.3767L51.4845 54.892C50.6906 56.0553 50.1136 57.3692 49.817 58.7827H38.3581L30.6573 51.3019C29.7658 50.4358 28.3212 50.4358 27.4295 51.3019C26.5379 52.168 26.538 53.5713 27.4295 54.4375L31.9026 58.7827H28.2827C27.0225 58.7826 26 59.7759 26 61C26 62.2241 27.0225 63.2174 28.2827 63.2174H31.9027L27.4297 67.5628C26.5381 68.4289 26.5381 69.8322 27.4297 70.6984C27.8754 71.1313 28.4594 71.348 29.0435 71.348C29.6276 71.348 30.2116 71.1313 30.6573 70.6982L38.3583 63.2174H49.8171C50.1135 64.6308 50.6907 65.9449 51.4846 67.1082L43.3768 74.9844H32.4853C31.2251 74.9844 30.2026 75.9777 30.2026 77.2018C30.2026 78.4259 31.2251 79.4192 32.4853 79.4192H38.8114L36.2509 81.9065C35.3594 82.7726 35.3594 84.1759 36.2509 85.0421C36.6967 85.4752 37.2808 85.6918 37.8647 85.6918C38.4487 85.6918 39.0329 85.4752 39.4786 85.0421L42.039 82.5548V88.7002C42.039 89.9243 43.0615 90.9176 44.3217 90.9176C45.5818 90.9176 46.6043 89.9243 46.6043 88.7002V78.1199L54.7122 70.2438C55.9097 71.015 57.2622 71.5755 58.7173 71.8637V82.9951L51.0165 90.4759C50.125 91.3419 50.125 92.7452 51.0165 93.6115C51.9081 94.4777 53.3526 94.4775 54.2443 93.6115L58.7175 89.2661V92.7827C58.7175 94.0068 59.74 95.0001 61.0001 95.0001C62.2603 95.0001 63.2828 94.0068 63.2828 92.7827V89.2661L67.756 93.6115C68.2018 94.0445 68.7859 94.2612 69.3698 94.2612C69.9537 94.2612 70.5379 94.0445 70.9836 93.6115C71.8752 92.7454 71.8752 91.3421 70.9836 90.4759L63.2828 82.9949V71.8635C64.7378 71.5756 66.0905 71.0149 67.288 70.2436L75.3958 78.1198V88.7C75.3958 89.9242 76.4183 90.9175 77.6785 90.9175C78.9386 90.9175 79.9611 89.9242 79.9611 88.7V82.5547L82.5216 85.042C82.9674 85.4751 83.5515 85.6917 84.1354 85.6917C84.7193 85.6917 85.3035 85.4751 85.7492 85.042C86.6408 84.1759 86.6408 82.7726 85.7492 81.9064L83.1889 79.4192H89.515C90.7752 79.4192 91.7977 78.4259 91.7977 77.2018C91.7977 75.9777 90.7752 74.9844 89.515 74.9844H78.6236L70.5156 67.1082C71.3096 65.9449 71.8865 64.631 72.1832 63.2174H83.642L91.3428 70.6982C91.7887 71.1313 92.3727 71.348 92.9566 71.348C93.5406 71.348 94.1248 71.1313 94.5705 70.6982C95.462 69.8322 95.462 68.4289 94.5705 67.5627L90.0974 63.2174H93.7175C94.9775 63.2174 96 62.2241 96 61ZM61 67.6522C57.224 67.6522 54.1522 64.6681 54.1522 61C54.1522 57.3319 57.224 54.3478 61 54.3478C64.776 54.3478 67.8478 57.3319 67.8478 61C67.8478 64.6681 64.776 67.6522 61 67.6522Z" fill="#99DDFF"/>
<path d="M67.8478 61C67.8478 64.6681 64.776 67.6522 61 67.6522V95C62.2601 95 63.2827 94.0067 63.2827 92.7826V89.266L67.7558 93.6113C68.2017 94.0444 68.7857 94.261 69.3696 94.261C69.9536 94.261 70.5378 94.0444 70.9835 93.6113C71.875 92.7452 71.875 91.3419 70.9835 90.4757L63.2827 82.9948V71.8634C64.7376 71.5755 66.0903 71.0147 67.2878 70.2435L75.3957 78.1197V88.6999C75.3957 89.924 76.4182 90.9173 77.6783 90.9173C78.9385 90.9173 79.961 89.924 79.961 88.6999V82.5545L82.5214 85.0419C82.9673 85.475 83.5513 85.6916 84.1353 85.6916C84.7192 85.6916 85.3034 85.475 85.7491 85.0419C86.6406 84.1758 86.6406 82.7725 85.7491 81.9063L83.1888 79.4191H89.5149C90.775 79.4191 91.7975 78.4258 91.7975 77.2017C91.7975 75.9775 90.775 74.9842 89.5149 74.9842H78.6235L70.5156 67.1082C71.3096 65.9449 71.8865 64.631 72.1832 63.2174H83.642L91.3428 70.6982C91.7887 71.1313 92.3727 71.348 92.9566 71.348C93.5406 71.348 94.1248 71.1313 94.5705 70.6982C95.462 69.8322 95.462 68.4289 94.5705 67.5627L90.0974 63.2174H93.7175C94.9776 63.2174 96.0001 62.2241 96.0001 61C96.0001 59.7759 94.9776 58.7826 93.7175 58.7826H90.0974L94.5706 54.4372C95.4622 53.5711 95.4622 52.1678 94.5706 51.3016C93.6791 50.4354 92.2345 50.4356 91.3428 51.3016L83.6419 58.7826H72.183C71.8866 57.3692 71.3094 56.0551 70.5155 54.8918L78.6233 47.0156H89.5147C90.7749 47.0156 91.7974 46.0223 91.7974 44.7982C91.7974 43.5741 90.7749 42.5808 89.5147 42.5808H83.1886L85.7491 40.0935C86.6406 39.2274 86.6406 37.8241 85.7491 36.9579C84.8576 36.0917 83.413 36.0918 82.5213 36.9579L79.961 39.4452V33.3C79.961 32.0758 78.9385 31.0825 77.6783 31.0825C76.4182 31.0825 75.3957 32.0758 75.3957 33.3V43.8802L67.2878 51.7562C66.0903 50.985 64.7378 50.4245 63.2827 50.1363V39.0051L70.9835 31.5243C71.875 30.6582 71.875 29.2549 70.9835 28.3887C70.0919 27.5225 68.6474 27.5226 67.7557 28.3887L63.2827 32.7339V29.2174C63.2827 27.9933 62.2601 27 61 27V54.3478C64.776 54.3478 67.8478 57.3319 67.8478 61Z" fill="#73C0E6"/>
</g>
<defs>
<clipPath id="clip0_0_1">
<rect width="70" height="68" fill="white" transform="translate(26 27)"/>
</clipPath>
</defs>
</svg>
