<svg width="122" height="122" viewBox="0 0 122 122" fill="none" xmlns="http://www.w3.org/2000/svg">
<circle cx="61" cy="61" r="61" fill="white"/>
<g clip-path="url(#clip0_0_1)">
<path d="M99.6077 90.237C98.9891 90.237 98.3651 90.0355 97.833 89.6164C96.5379 88.5957 96.2828 86.6749 97.2639 85.3274C102.547 78.0708 105.116 70.5377 105.116 62.2987C105.116 52.7724 101.713 43.9226 95.5338 37.3807C94.3947 36.1747 94.4105 34.2364 95.5695 33.0523C96.7287 31.8662 98.5917 31.8837 99.7299 33.0895C106.998 40.7838 111 51.1564 111 62.2985C111 71.9211 108.041 80.6635 101.955 89.0242C101.377 89.819 100.497 90.237 99.6077 90.237Z" fill="#4DBFBF"/>
<path d="M23.3923 90.2367C22.5029 90.2367 21.6231 89.8191 21.0446 89.0243C14.959 80.6632 12 71.9208 12 62.2982C12 51.1559 16.0023 40.7834 23.2701 33.0892C24.4081 31.8832 26.2713 31.8669 27.4305 33.052C28.5897 34.2359 28.6053 36.1744 27.4662 37.3804C21.2869 43.9223 17.8843 52.7721 17.8843 62.2984C17.8843 70.5374 20.4523 78.0704 25.7361 85.3271C26.7172 86.6746 26.4621 88.5954 25.167 89.6161C24.6349 90.0337 24.0109 90.2367 23.3923 90.2367Z" fill="#57D4D4"/>
<path d="M34.2947 82.95C33.4273 82.95 32.5698 82.5531 31.9889 81.7935C27.2512 75.5881 24.9487 69.2118 24.9487 62.2981C24.9487 54.8167 27.6149 47.8461 32.4568 42.669C33.5897 41.4585 35.4516 41.4312 36.6172 42.6096C37.7818 43.7883 37.8069 45.7266 36.6742 46.938C32.907 50.9659 30.8332 56.4203 30.8332 62.2979C30.8332 67.8499 32.6645 72.8351 36.5963 77.9855C37.607 79.3088 37.395 81.234 36.1222 82.2854C35.5815 82.7332 34.9353 82.95 34.2947 82.95Z" fill="#57D4D4"/>
<path d="M88.7055 82.9502C88.0647 82.9502 87.4189 82.7332 86.8782 82.2858C85.6053 81.2342 85.3934 79.3092 86.4041 77.9859C90.3359 72.8353 92.1672 67.8501 92.1672 62.2983C92.1672 56.4207 90.0934 50.9663 86.3262 46.9385C85.1933 45.7268 85.2186 43.7887 86.3832 42.61C87.5467 41.4304 89.4095 41.4577 90.5435 42.6694C95.3858 47.8463 98.0517 54.8172 98.0517 62.2985C98.0517 69.2122 95.7492 75.5883 91.0115 81.7939C90.4304 82.5535 89.5715 82.9502 88.7055 82.9502Z" fill="#4DBFBF"/>
<path d="M61.5 90.8264C60.8223 90.8264 60.1459 90.5842 59.597 90.0996C58.2693 88.9276 56.9837 87.806 55.7443 86.7261C45.3837 77.6921 37.8976 71.1645 37.8976 62.2982C37.8976 54.3244 43.6216 48.0786 50.9296 48.0786C56.0161 48.0786 59.4073 50.996 61.5 53.8269C63.5927 50.9962 66.9839 48.0786 72.0704 48.0786C79.3782 48.0786 85.1024 54.3244 85.1024 62.2982C85.1024 71.1643 77.6163 77.6923 67.2557 86.7261C66.0165 87.8062 64.7308 88.9278 63.403 90.0996C62.8543 90.5842 62.1777 90.8264 61.5 90.8264Z" fill="#E6563A"/>
<path d="M63.4032 90.0996C64.7308 88.9276 66.0165 87.806 67.2559 86.7261C77.6167 77.6923 85.1026 71.1645 85.1026 62.2982C85.1026 54.3244 79.3786 48.0786 72.0706 48.0786C66.9841 48.0786 63.5929 50.996 61.5002 53.8269V90.8266C62.1777 90.8262 62.8543 90.584 63.4032 90.0996Z" fill="#D9472B"/>
</g>
<defs>
<clipPath id="clip0_0_1">
<rect width="99" height="103" fill="white" transform="translate(12 10)"/>
</clipPath>
</defs>
</svg>
