<svg width="122" height="122" viewBox="0 0 122 122" fill="none" xmlns="http://www.w3.org/2000/svg">
<circle cx="61" cy="61" r="61" fill="white"/>
<g clip-path="url(#clip0_0_1)">
<path d="M59 23C55.9164 23 52.919 23.3825 50.055 24.1043V96.8955C52.919 97.6175 55.9164 98 59 98C79.4338 98 96 81.2098 96 60.5C96 39.7902 79.4338 23 59 23Z" fill="#FCD197"/>
<path d="M50.055 24.1045C66.1674 28.1579 78.1099 42.9156 78.1099 60.5001C78.1099 78.0847 66.1674 92.8424 50.055 96.8958C33.9425 92.8424 22 78.0847 22 60.5001C22 42.9156 33.9425 28.1579 50.055 24.1045Z" fill="white"/>
<path d="M83.7404 79.4561C84.4141 79.4561 84.9603 78.9025 84.9603 78.2197C84.9603 77.5369 84.4141 76.9834 83.7404 76.9834C83.0667 76.9834 82.5206 77.5369 82.5206 78.2197C82.5206 78.9025 83.0667 79.4561 83.7404 79.4561Z" fill="#FAB352"/>
<path d="M79.6745 82.7529C80.3482 82.7529 80.8943 82.1994 80.8943 81.5166C80.8943 80.8338 80.3482 80.2803 79.6745 80.2803C79.0008 80.2803 78.4546 80.8338 78.4546 81.5166C78.4546 82.1994 79.0008 82.7529 79.6745 82.7529Z" fill="#FAB352"/>
<path d="M80.6096 42.3682C81.2833 42.3682 81.8294 41.8146 81.8294 41.1318C81.8294 40.449 81.2833 39.8955 80.6096 39.8955C79.9359 39.8955 79.3897 40.449 79.3897 41.1318C79.3897 41.8146 79.9359 42.3682 80.6096 42.3682Z" fill="#FAB352"/>
<path d="M56.1459 65.8481L58.6588 71.0086L64.2777 71.8361L60.2118 75.8529L61.1717 81.5249L56.1459 78.847L51.12 81.5249L52.08 75.8529L48.014 71.8361L53.633 71.0086L56.1459 65.8481Z" fill="#FCD197"/>
<path d="M56.1459 39.4746L58.6588 44.6351L64.2777 45.4626L60.2118 49.4795L61.1717 55.1514L56.1459 52.4735L51.12 55.1514L52.08 49.4795L48.014 45.4626L53.633 44.6351L56.1459 39.4746Z" fill="#FCD197"/>
<path d="M38.109 52.6616L40.622 57.8221L46.2409 58.6496L42.175 62.6664L43.135 68.3384L38.109 65.6605L33.0832 68.3384L34.0431 62.6664L29.9773 58.6496L35.5962 57.8221L38.109 52.6616Z" fill="#FAB352"/>
</g>
<defs>
<clipPath id="clip0_0_1">
<rect width="74" height="75" fill="white" transform="translate(22 23)"/>
</clipPath>
</defs>
</svg>
