<svg width="122" height="122" viewBox="0 0 122 122" fill="none" xmlns="http://www.w3.org/2000/svg">
<circle cx="61" cy="61" r="61" fill="white"/>
<g clip-path="url(#clip0_0_1)">
<path d="M72.5987 79.4076L59.8881 68.1094L42.289 83.753L54.9996 95.0513L55.0077 95.0441C59.8881 99.0769 67.5222 98.9844 72.2728 94.7617C77.0234 90.5389 77.1274 83.753 72.5906 79.415L72.5987 79.4076Z" fill="#F3DBBD"/>
<path d="M47.1776 56.8108L47.1695 56.818C42.289 52.7853 34.6549 52.8777 29.9043 57.1005C25.1537 61.3231 25.0497 68.1091 29.5866 72.4473L29.5785 72.4545L42.2892 83.7527L59.8883 68.1091L47.1776 56.8108Z" fill="#E74424"/>
<path d="M62.0004 28.949L61.9923 28.9562C57.1119 24.9234 49.4778 25.0159 44.7272 29.2386C39.9765 33.4614 39.8726 40.2473 44.4094 44.5854L44.4013 44.5927L57.1119 55.8909L74.711 40.2471L62.0004 28.949Z" fill="#F3DBBD"/>
<path d="M87.4134 51.5527L87.4217 51.5453L74.711 40.2471L57.1118 55.8909L69.8224 67.1893L69.8305 67.182C74.711 71.2147 82.345 71.1223 87.0957 66.8995C91.8463 62.6767 91.9503 55.8909 87.4134 51.5527Z" fill="#E74424"/>
</g>
<defs>
<clipPath id="clip0_0_1">
<rect width="81" height="72" fill="white" transform="translate(18 26)"/>
</clipPath>
</defs>
</svg>
