<svg width="122" height="122" viewBox="0 0 122 122" fill="none" xmlns="http://www.w3.org/2000/svg">
<circle cx="61" cy="61" r="61" fill="white"/>
<g clip-path="url(#clip0_0_1)">
<path d="M52.9194 27.6831H61.5762C61.5762 27.6831 60.5112 47.5901 69.3691 41.9909C73.4194 39.4316 80.351 34.8861 88.8469 41.7877C95.5222 47.2118 101.468 56.1144 92.3069 74.8991C87.5282 84.6928 71.6618 100.164 47.5067 83.2781C43.8307 80.7114 34.0913 74.4919 33.4408 94.3172H25.0008C25.0008 94.3172 24.6721 71.1225 38.8517 72.856C46.2021 73.7536 63.1825 77.9919 65.9046 61.4081C66.4677 57.9742 68.0513 53.741 59.4138 48.9395C55.7333 46.8972 52.7026 45.0572 52.9194 27.6831Z" fill="#E34326"/>
</g>
<defs>
<clipPath id="clip0_0_1">
<rect width="72" height="68" fill="white" transform="translate(25 27)"/>
</clipPath>
</defs>
</svg>
