<svg width="122" height="122" viewBox="0 0 122 122" fill="none" xmlns="http://www.w3.org/2000/svg">
<circle cx="61" cy="61" r="61" fill="white"/>
<g clip-path="url(#clip0_0_1)">
<path d="M62.9897 26.9319C62.4618 26.3361 61.7464 26.0011 61 26.0003C60.999 26.0003 60.9979 26 60.9969 26C60.2493 26 59.5325 26.3354 59.0043 26.932C58.2035 27.8363 39.3925 49.3339 39.3925 71.6094C39.3924 85.0584 49.0841 96 60.997 96C60.9979 96 60.999 96 61 96C72.9147 95.9981 82.6076 85.0573 82.6076 71.6095C82.6076 49.3335 63.7907 27.8359 62.9897 26.9319Z" fill="#C4D9FD"/>
<path d="M60.997 96C60.9979 96 60.999 96 61 96V26.0003C60.999 26.0003 60.9979 26 60.9969 26C60.2493 26.0003 59.5325 26.3354 59.0043 26.932C58.2035 27.8363 39.3925 49.3339 39.3925 71.6094C39.3924 85.0584 49.0841 96 60.997 96Z" fill="#A7C7FC"/>
</g>
<defs>
<clipPath id="clip0_0_1">
<rect width="62" height="70" fill="white" transform="translate(30 26)"/>
</clipPath>
</defs>
</svg>
