<svg width="227" height="184" viewBox="0 0 227 184" fill="none" xmlns="http://www.w3.org/2000/svg">
<path d="M94.1667 141.308C102.905 141.447 111.285 141.557 119.698 139.057C129.594 136.117 154.01 126.359 159.094 118.767C172.261 99.1011 171.551 70.872 159.871 51.8266C154.377 42.8665 149.128 33.6665 145.536 23.9808C141.653 13.5138 133.081 6.48095 121.485 1.71087C115.579 -0.718421 108.722 -0.00140693 102.493 1.04426C95.7279 2.18008 89.4917 3.3219 83.0902 5.65387C76.3541 8.1077 69.1797 11.326 63.6968 15.545C57.3376 20.4382 51.6251 26.2267 45.7732 31.554C25.0356 50.4322 2.74167 73.081 0.331397 99.7068C-0.0761747 104.209 -0.0723089 112.419 3.71531 115.876C6.49341 118.411 9.62648 120.733 12.9172 122.759C23.2312 129.11 33.5056 132.753 45.9676 135.266C52.8013 136.644 59.4593 138.773 66.4608 139.569C75.6365 140.611 84.8915 141.16 94.1667 141.308Z" fill="#F29FE2" fill-opacity="0.62"/>
<path d="M184.713 173.959C192.277 171.791 199.517 169.695 205.138 165.877C211.749 161.387 226.481 148.662 226.039 142.36C224.891 126.035 206.464 107.674 184.448 98.1832C174.091 93.718 163.793 89.0315 154.604 83.5978C144.675 77.7257 132.9 75.3226 119.967 75.1879C113.381 75.1192 107.965 77.3637 103.296 79.6614C98.2245 82.1572 93.6092 84.5201 89.6037 87.7076C85.389 91.0616 81.2817 95.0312 79.2535 99.2208C76.9011 104.08 75.6671 109.36 74.0226 114.373C68.1953 132.138 63.4163 152.782 78.1615 170.897C80.6548 173.96 85.8406 179.352 91.2634 180.643C95.2407 181.59 99.3878 182.306 103.482 182.786C116.316 184.29 127.407 184.027 139.657 182.455C146.374 181.593 153.415 181.269 159.908 179.981C168.417 178.293 176.683 176.26 184.713 173.959Z" fill="#FCEBEC"/>
</svg>
