<svg width="266" height="222" viewBox="0 0 266 222" fill="none" xmlns="http://www.w3.org/2000/svg">
<path d="M118.167 159.308C126.905 159.447 135.285 159.557 143.698 157.057C153.594 154.117 178.01 144.359 183.094 136.767C196.261 117.101 195.551 88.872 183.871 69.8266C178.377 60.8665 173.128 51.6665 169.536 41.9808C165.653 31.5138 157.081 24.4809 145.485 19.7109C139.579 17.2816 132.722 17.9986 126.493 19.0443C119.728 20.1801 113.492 21.3219 107.09 23.6539C100.354 26.1077 93.1797 29.326 87.6968 33.545C81.3376 38.4382 75.6251 44.2267 69.7732 49.554C49.0356 68.4322 26.7417 91.081 24.3314 117.707C23.9238 122.209 23.9277 130.419 27.7153 133.876C30.4934 136.411 33.6265 138.733 36.9172 140.759C47.2312 147.11 57.5056 150.753 69.9676 153.266C76.8013 154.644 83.4593 156.773 90.4608 157.569C99.6365 158.611 108.891 159.16 118.167 159.308Z" fill="#C4A6E8" fill-opacity="0.59"/>
<path d="M208.713 191.959C216.277 189.791 223.517 187.695 229.138 183.877C235.749 179.387 250.481 166.662 250.039 160.36C248.891 144.035 230.464 125.674 208.448 116.183C198.091 111.718 187.793 107.031 178.604 101.598C168.675 95.7257 156.9 93.3226 143.967 93.1879C137.381 93.1192 131.965 95.3637 127.296 97.6614C122.224 100.157 117.609 102.52 113.604 105.708C109.389 109.062 105.282 113.031 103.253 117.221C100.901 122.08 99.6671 127.36 98.0226 132.373C92.1953 150.138 87.4163 170.782 102.161 188.897C104.655 191.96 109.841 197.352 115.263 198.643C119.241 199.59 123.388 200.306 127.482 200.786C140.316 202.29 151.407 202.027 163.657 200.455C170.374 199.593 177.415 199.269 183.908 197.981C192.417 196.293 200.683 194.26 208.713 191.959Z" fill="#F5E6FD"/>
</svg>
