<svg width="206" height="56" viewBox="0 0 206 56" fill="none" xmlns="http://www.w3.org/2000/svg">
<path fill-rule="evenodd" clip-rule="evenodd" d="M12.4734 2.12868C9.97961 2.45683 5.19007 8.14366 4.17278 10.6819C2.3768 15.1679 2.46914 17.6913 1.43604 21.2126C-0.945818 29.3323 0.782798 37.5859 1.01321 45.7017C1.05174 47.0586 -0.285658 52.7467 2.72776 53.5824C8.88562 55.2903 23.9667 54.8979 32.6026 55.0324C60.4435 55.467 89.7419 55.2488 117.983 54.4471C135.05 53.9625 152.488 54.1721 169.41 53.2171C176.12 52.838 184.266 52.3465 189.102 50.7044C191.467 49.9014 191.299 46.9962 191.58 46.0371C193.053 41.0162 194.712 35.9596 197.49 30.9304C201.035 24.5128 201.543 17.9826 203.654 11.5644C204.555 8.82238 207.132 4.20082 203.004 1.81503C201.516 0.955456 196.294 1.10657 193.659 1.04596C180.897 0.753203 151.221 0.600689 138.236 0.683272C99.7144 0.929023 77.4888 1.28566 39.2744 1.06221C32.1148 1.02053 19.0826 1.25972 12.4734 2.12868Z" fill="#F276D9" fill-opacity="0.2"/>
</svg>
