<svg width="196" height="176" viewBox="0 0 196 176" fill="none" xmlns="http://www.w3.org/2000/svg">
<path d="M112.365 146.176C118.381 146.136 124.152 146.08 130.001 144.222C136.882 142.036 153.913 134.912 157.58 129.586C167.078 115.792 167.203 96.2984 159.573 83.3213C155.983 77.2162 152.568 70.9414 150.304 64.3051C147.857 57.1335 142.105 52.4081 134.221 49.2933C130.206 47.7071 125.466 48.3097 121.153 49.1295C116.468 50.02 112.148 50.9064 107.687 52.6177C102.994 54.4185 97.9816 56.7543 94.113 59.7551C89.6261 63.2355 85.5651 67.3244 81.4181 71.0967C66.7224 84.4649 50.8726 100.463 48.633 118.898C48.2543 122.015 48.0783 127.688 50.6121 130.017C52.4707 131.725 54.5783 133.281 56.801 134.629C63.7675 138.856 70.7657 141.213 79.2954 142.754C83.9727 143.6 88.5127 144.967 93.3183 145.407C99.6162 145.984 105.979 146.219 112.365 146.176Z" fill="#B2C5FF"/>
<path d="M131.069 106.325C138.634 104.157 145.874 102.062 151.494 98.2442C158.106 93.7535 172.838 81.0285 172.395 74.7263C171.248 58.402 152.821 40.041 130.805 30.5499C120.448 26.0847 110.149 21.3982 100.961 15.9644C91.0318 10.0924 79.257 7.68931 66.3238 7.55456C59.7372 7.48595 54.3221 9.73044 49.6529 12.0281C44.5812 14.5239 39.9659 16.8868 35.9604 20.0743C31.7457 23.4283 27.6384 27.3979 25.6101 31.5875C23.2578 36.4466 22.0238 41.7266 20.3793 46.7396C14.552 64.5044 9.77303 85.1487 24.5181 103.263C27.0115 106.327 32.1973 111.719 37.62 113.01C41.5974 113.957 45.7445 114.673 49.8391 115.153C62.6728 116.657 73.764 116.393 86.0137 114.821C92.7309 113.96 99.7716 113.636 106.265 112.348C114.774 110.66 123.039 108.627 131.069 106.325Z" fill="#FFD4FF"/>
</svg>
